<svg xmlns="http://www.w3.org/2000/svg" viewBox="0 0 1600 1000"><defs><linearGradient id="g" x2="0" y2="1"><stop stop-color="#294550"/><stop offset="1" stop-color="#0d202a"/></linearGradient><linearGradient id="h"><stop stop-color="#b69a6a" stop-opacity=".65"/><stop offset="1" stop-color="#b69a6a" stop-opacity="0"/></linearGradient></defs><rect width="1600" height="1000" fill="url(#g)"/><circle cx="1190" cy="300" r="240" fill="url(#h)" opacity=".45"/><path fill="#091b24" d="M0 760h95V625h40v135h54V545h37v215h64V670h48v90h39V585h45v175h50V510h44v250h55V650h42v110h45V566h35v194h48V630h44v130h61V460h32v300h31V590h44v170h43V410h29v350h37V545h54v215h45V615h41v145h54V520h35v240h44V590h46v170h53V445h31v315h35V610h55v150h49V530h41v230h40v-8h50v8h43v-5h75v5h70v230H0z"/><path stroke="#b69a6a" stroke-opacity=".45" d="M0 792h1600"/><text x="80" y="130" fill="#d5c29e" font-family="sans-serif" font-size="16" letter-spacing="7">FRANKFURT AM MAIN</text></svg>